{
 "asset": {
  "version": "2.0",
  "generator": "fab-digital-twin demo builder"
 },
 "scenes": [
  {
   "nodes": [
    0,
    1,
    2,
    3,
    4,
    5,
    6,
    7,
    8,
    9,
    10,
    11,
    12,
    13,
    14,
    15,
    16,
    17,
    18,
    19,
    20,
    21,
    22,
    23,
    24
   ]
  }
 ],
 "scene": 0,
 "nodes": [
  {
   "name": "FLOOR",
   "mesh": 6,
   "scale": [
    92,
    0.2,
    82
   ],
   "translation": [
    0,
    -0.1,
    0
   ]
  },
  {
   "name": "EUV_01",
   "mesh": 0,
   "scale": [
    4.8,
    5.6,
    5.0
   ],
   "translation": [
    -29.5,
    2.8,
    -20.5
   ]
  },
  {
   "name": "EUV_02",
   "mesh": 0,
   "scale": [
    4.8,
    5.6,
    5.0
   ],
   "translation": [
    -22.5,
    2.8,
    -20.5
   ]
  },
  {
   "name": "EUV_03",
   "mesh": 0,
   "scale": [
    4.8,
    5.6,
    5.0
   ],
   "translation": [
    -29.5,
    2.8,
    -13.5
   ]
  },
  {
   "name": "EUV_04",
   "mesh": 0,
   "scale": [
    4.8,
    5.6,
    5.0
   ],
   "translation": [
    -22.5,
    2.8,
    -13.5
   ]
  },
  {
   "name": "ETCH_01",
   "mesh": 1,
   "scale": [
    4.4,
    4.2,
    4.8
   ],
   "translation": [
    -3.5,
    2.1,
    -20.5
   ]
  },
  {
   "name": "ETCH_02",
   "mesh": 1,
   "scale": [
    4.4,
    4.2,
    4.8
   ],
   "translation": [
    3.5,
    2.1,
    -20.5
   ]
  },
  {
   "name": "ETCH_03",
   "mesh": 1,
   "scale": [
    4.4,
    4.2,
    4.8
   ],
   "translation": [
    -3.5,
    2.1,
    -13.5
   ]
  },
  {
   "name": "ETCH_04",
   "mesh": 1,
   "scale": [
    4.4,
    4.2,
    4.8
   ],
   "translation": [
    3.5,
    2.1,
    -13.5
   ]
  },
  {
   "name": "CVD_01",
   "mesh": 2,
   "scale": [
    4.4,
    4.4,
    4.8
   ],
   "translation": [
    22.5,
    2.2,
    -20.5
   ]
  },
  {
   "name": "CVD_02",
   "mesh": 2,
   "scale": [
    4.4,
    4.4,
    4.8
   ],
   "translation": [
    29.5,
    2.2,
    -20.5
   ]
  },
  {
   "name": "CVD_03",
   "mesh": 2,
   "scale": [
    4.4,
    4.4,
    4.8
   ],
   "translation": [
    22.5,
    2.2,
    -13.5
   ]
  },
  {
   "name": "CVD_04",
   "mesh": 2,
   "scale": [
    4.4,
    4.4,
    4.8
   ],
   "translation": [
    29.5,
    2.2,
    -13.5
   ]
  },
  {
   "name": "CMP_01",
   "mesh": 3,
   "scale": [
    4.2,
    4.0,
    4.6
   ],
   "translation": [
    -29.5,
    2.0,
    13.5
   ]
  },
  {
   "name": "CMP_02",
   "mesh": 3,
   "scale": [
    4.2,
    4.0,
    4.6
   ],
   "translation": [
    -22.5,
    2.0,
    13.5
   ]
  },
  {
   "name": "CMP_03",
   "mesh": 3,
   "scale": [
    4.2,
    4.0,
    4.6
   ],
   "translation": [
    -29.5,
    2.0,
    20.5
   ]
  },
  {
   "name": "CMP_04",
   "mesh": 3,
   "scale": [
    4.2,
    4.0,
    4.6
   ],
   "translation": [
    -22.5,
    2.0,
    20.5
   ]
  },
  {
   "name": "IMP_01",
   "mesh": 4,
   "scale": [
    4.6,
    4.4,
    5.2
   ],
   "translation": [
    -3.5,
    2.2,
    13.5
   ]
  },
  {
   "name": "IMP_02",
   "mesh": 4,
   "scale": [
    4.6,
    4.4,
    5.2
   ],
   "translation": [
    3.5,
    2.2,
    13.5
   ]
  },
  {
   "name": "IMP_03",
   "mesh": 4,
   "scale": [
    4.6,
    4.4,
    5.2
   ],
   "translation": [
    -3.5,
    2.2,
    20.5
   ]
  },
  {
   "name": "IMP_04",
   "mesh": 4,
   "scale": [
    4.6,
    4.4,
    5.2
   ],
   "translation": [
    3.5,
    2.2,
    20.5
   ]
  },
  {
   "name": "MET_01",
   "mesh": 5,
   "scale": [
    3.6,
    3.6,
    3.6
   ],
   "translation": [
    22.5,
    1.8,
    13.5
   ]
  },
  {
   "name": "MET_02",
   "mesh": 5,
   "scale": [
    3.6,
    3.6,
    3.6
   ],
   "translation": [
    29.5,
    1.8,
    13.5
   ]
  },
  {
   "name": "MET_03",
   "mesh": 5,
   "scale": [
    3.6,
    3.6,
    3.6
   ],
   "translation": [
    22.5,
    1.8,
    20.5
   ]
  },
  {
   "name": "MET_04",
   "mesh": 5,
   "scale": [
    3.6,
    3.6,
    3.6
   ],
   "translation": [
    29.5,
    1.8,
    20.5
   ]
  }
 ],
 "meshes": [
  {
   "name": "m_LITHO",
   "primitives": [
    {
     "attributes": {
      "POSITION": 0,
      "NORMAL": 1
     },
     "indices": 2,
     "material": 0
    }
   ]
  },
  {
   "name": "m_ETCH",
   "primitives": [
    {
     "attributes": {
      "POSITION": 0,
      "NORMAL": 1
     },
     "indices": 2,
     "material": 1
    }
   ]
  },
  {
   "name": "m_DEP",
   "primitives": [
    {
     "attributes": {
      "POSITION": 0,
      "NORMAL": 1
     },
     "indices": 2,
     "material": 2
    }
   ]
  },
  {
   "name": "m_CMP",
   "primitives": [
    {
     "attributes": {
      "POSITION": 0,
      "NORMAL": 1
     },
     "indices": 2,
     "material": 3
    }
   ]
  },
  {
   "name": "m_IMPL",
   "primitives": [
    {
     "attributes": {
      "POSITION": 0,
      "NORMAL": 1
     },
     "indices": 2,
     "material": 4
    }
   ]
  },
  {
   "name": "m_METRO",
   "primitives": [
    {
     "attributes": {
      "POSITION": 0,
      "NORMAL": 1
     },
     "indices": 2,
     "material": 5
    }
   ]
  },
  {
   "name": "m_FLOOR",
   "primitives": [
    {
     "attributes": {
      "POSITION": 0,
      "NORMAL": 1
     },
     "indices": 2,
     "material": 6
    }
   ]
  }
 ],
 "materials": [
  {
   "name": "LITHO",
   "pbrMetallicRoughness": {
    "baseColorFactor": [
     1.0,
     0.361,
     0.541,
     1.0
    ],
    "metallicFactor": 0.2,
    "roughnessFactor": 0.7
   }
  },
  {
   "name": "ETCH",
   "pbrMetallicRoughness": {
    "baseColorFactor": [
     0.306,
     0.631,
     1.0,
     1.0
    ],
    "metallicFactor": 0.2,
    "roughnessFactor": 0.7
   }
  },
  {
   "name": "DEP",
   "pbrMetallicRoughness": {
    "baseColorFactor": [
     0.341,
     0.839,
     0.651,
     1.0
    ],
    "metallicFactor": 0.2,
    "roughnessFactor": 0.7
   }
  },
  {
   "name": "CMP",
   "pbrMetallicRoughness": {
    "baseColorFactor": [
     0.949,
     0.757,
     0.306,
     1.0
    ],
    "metallicFactor": 0.2,
    "roughnessFactor": 0.7
   }
  },
  {
   "name": "IMPL",
   "pbrMetallicRoughness": {
    "baseColorFactor": [
     0.725,
     0.549,
     1.0,
     1.0
    ],
    "metallicFactor": 0.2,
    "roughnessFactor": 0.7
   }
  },
  {
   "name": "METRO",
   "pbrMetallicRoughness": {
    "baseColorFactor": [
     1.0,
     0.624,
     0.361,
     1.0
    ],
    "metallicFactor": 0.2,
    "roughnessFactor": 0.7
   }
  },
  {
   "name": "FLOOR",
   "pbrMetallicRoughness": {
    "baseColorFactor": [
     0.12,
     0.16,
     0.22,
     1.0
    ],
    "metallicFactor": 0.0,
    "roughnessFactor": 0.95
   }
  }
 ],
 "buffers": [
  {
   "byteLength": 648,
   "uri": "data:application/octet-stream;base64,"
  }
 ],
 "bufferViews": [
  {
   "buffer": 0,
   "byteOffset": 0,
   "byteLength": 288,
   "target": 34962
  },
  {
   "buffer": 0,
   "byteOffset": 288,
   "byteLength": 288,
   "target": 34962
  },
  {
   "buffer": 0,
   "byteOffset": 576,
   "byteLength": 72,
   "target": 34963
  }
 ],
 "accessors": [
  {
   "bufferView": 0,
   "componentType": 5126,
   "count": 24,
   "type": "VEC3",
   "min": [
    -0.5,
    -0.5,
    -0.5
   ],
   "max": [
    0.5,
    0.5,
    0.5
   ]
  },
  {
   "bufferView": 1,
   "componentType": 5126,
   "count": 24,
   "type": "VEC3"
  },
  {
   "bufferView": 2,
   "componentType": 5123,
   "count": 36,
   "type": "SCALAR"
  }
 ]
}