{
 "asset": {
  "version": "2.0",
  "generator": "fab-digital-twin gen_plant.py"
 },
 "scenes": [
  {
   "nodes": [
    0,
    1,
    2,
    3,
    4,
    5,
    6,
    7,
    8,
    9,
    10,
    11,
    12,
    13,
    14,
    15,
    16,
    17,
    18,
    19,
    20,
    21,
    22,
    23,
    24,
    25,
    26,
    27,
    28,
    29,
    30,
    31,
    32,
    33,
    34,
    35,
    36,
    37,
    38,
    39,
    40,
    41,
    42,
    43,
    44,
    45,
    46,
    47,
    48,
    49,
    50,
    51,
    52,
    53,
    54,
    55,
    56,
    57,
    58,
    59,
    60,
    61,
    62,
    63,
    64,
    65,
    66,
    67,
    68,
    69,
    70,
    71,
    72,
    73,
    74,
    75,
    76,
    77,
    78,
    79,
    80,
    81,
    82,
    83,
    84,
    85,
    86,
    87,
    88,
    89,
    90,
    91,
    92,
    93,
    94,
    95,
    96,
    97,
    98,
    99,
    100,
    101,
    102,
    103,
    104,
    105,
    106,
    107,
    108,
    109,
    110,
    111,
    112,
    113,
    114,
    115,
    116,
    117,
    118,
    119,
    120,
    121,
    122,
    123,
    124,
    125,
    126,
    127,
    128,
    129,
    130,
    131,
    132,
    133,
    134,
    135,
    136,
    137,
    138,
    139,
    140,
    141,
    142,
    143,
    144,
    145,
    146,
    147,
    148,
    149,
    150,
    151,
    152,
    153,
    154,
    155,
    156,
    157,
    158,
    159,
    160,
    161,
    162,
    163,
    164,
    165,
    166,
    167,
    168,
    169,
    170,
    171,
    172,
    173,
    174,
    175,
    176,
    177,
    178,
    179,
    180,
    181,
    182,
    183,
    184,
    185,
    186,
    187,
    188,
    189,
    190,
    191,
    192,
    193,
    194,
    195,
    196
   ]
  }
 ],
 "scene": 0,
 "nodes": [
  {
   "name": "EUV_01",
   "mesh": 0,
   "translation": [
    -111.5,
    0.0,
    -64.0
   ]
  },
  {
   "name": "EUV_02",
   "mesh": 0,
   "translation": [
    -100.5,
    0.0,
    -64.0
   ]
  },
  {
   "name": "EUV_03",
   "mesh": 0,
   "translation": [
    -89.5,
    0.0,
    -64.0
   ]
  },
  {
   "name": "EUV_04",
   "mesh": 0,
   "translation": [
    -78.5,
    0.0,
    -64.0
   ]
  },
  {
   "name": "EUV_05",
   "mesh": 0,
   "translation": [
    -111.5,
    0.0,
    -53.0
   ]
  },
  {
   "name": "EUV_06",
   "mesh": 0,
   "translation": [
    -100.5,
    0.0,
    -53.0
   ]
  },
  {
   "name": "EUV_07",
   "mesh": 0,
   "translation": [
    -89.5,
    0.0,
    -53.0
   ]
  },
  {
   "name": "EUV_08",
   "mesh": 0,
   "translation": [
    -78.5,
    0.0,
    -53.0
   ]
  },
  {
   "name": "EUV_09",
   "mesh": 0,
   "translation": [
    -111.5,
    0.0,
    -42.0
   ]
  },
  {
   "name": "EUV_10",
   "mesh": 0,
   "translation": [
    -100.5,
    0.0,
    -42.0
   ]
  },
  {
   "name": "EUV_11",
   "mesh": 0,
   "translation": [
    -89.5,
    0.0,
    -42.0
   ]
  },
  {
   "name": "EUV_12",
   "mesh": 0,
   "translation": [
    -78.5,
    0.0,
    -42.0
   ]
  },
  {
   "name": "EUV_13",
   "mesh": 0,
   "translation": [
    -111.5,
    0.0,
    -31.0
   ]
  },
  {
   "name": "EUV_14",
   "mesh": 0,
   "translation": [
    -100.5,
    0.0,
    -31.0
   ]
  },
  {
   "name": "ETCH_01",
   "mesh": 1,
   "translation": [
    -18.0,
    0.0,
    -62.5
   ]
  },
  {
   "name": "ETCH_02",
   "mesh": 1,
   "translation": [
    -12.0,
    0.0,
    -62.5
   ]
  },
  {
   "name": "ETCH_03",
   "mesh": 1,
   "translation": [
    -6.0,
    0.0,
    -62.5
   ]
  },
  {
   "name": "ETCH_04",
   "mesh": 1,
   "translation": [
    0.0,
    0.0,
    -62.5
   ]
  },
  {
   "name": "ETCH_05",
   "mesh": 1,
   "translation": [
    6.0,
    0.0,
    -62.5
   ]
  },
  {
   "name": "ETCH_06",
   "mesh": 1,
   "translation": [
    12.0,
    0.0,
    -62.5
   ]
  },
  {
   "name": "ETCH_07",
   "mesh": 1,
   "translation": [
    18.0,
    0.0,
    -62.5
   ]
  },
  {
   "name": "ETCH_08",
   "mesh": 1,
   "translation": [
    -18.0,
    0.0,
    -56.5
   ]
  },
  {
   "name": "ETCH_09",
   "mesh": 1,
   "translation": [
    -12.0,
    0.0,
    -56.5
   ]
  },
  {
   "name": "ETCH_10",
   "mesh": 1,
   "translation": [
    -6.0,
    0.0,
    -56.5
   ]
  },
  {
   "name": "ETCH_11",
   "mesh": 1,
   "translation": [
    0.0,
    0.0,
    -56.5
   ]
  },
  {
   "name": "ETCH_12",
   "mesh": 1,
   "translation": [
    6.0,
    0.0,
    -56.5
   ]
  },
  {
   "name": "ETCH_13",
   "mesh": 1,
   "translation": [
    12.0,
    0.0,
    -56.5
   ]
  },
  {
   "name": "ETCH_14",
   "mesh": 1,
   "translation": [
    18.0,
    0.0,
    -56.5
   ]
  },
  {
   "name": "ETCH_15",
   "mesh": 1,
   "translation": [
    -18.0,
    0.0,
    -50.5
   ]
  },
  {
   "name": "ETCH_16",
   "mesh": 1,
   "translation": [
    -12.0,
    0.0,
    -50.5
   ]
  },
  {
   "name": "ETCH_17",
   "mesh": 1,
   "translation": [
    -6.0,
    0.0,
    -50.5
   ]
  },
  {
   "name": "ETCH_18",
   "mesh": 1,
   "translation": [
    0.0,
    0.0,
    -50.5
   ]
  },
  {
   "name": "ETCH_19",
   "mesh": 1,
   "translation": [
    6.0,
    0.0,
    -50.5
   ]
  },
  {
   "name": "ETCH_20",
   "mesh": 1,
   "translation": [
    12.0,
    0.0,
    -50.5
   ]
  },
  {
   "name": "ETCH_21",
   "mesh": 1,
   "translation": [
    18.0,
    0.0,
    -50.5
   ]
  },
  {
   "name": "ETCH_22",
   "mesh": 1,
   "translation": [
    -18.0,
    0.0,
    -44.5
   ]
  },
  {
   "name": "ETCH_23",
   "mesh": 1,
   "translation": [
    -12.0,
    0.0,
    -44.5
   ]
  },
  {
   "name": "ETCH_24",
   "mesh": 1,
   "translation": [
    -6.0,
    0.0,
    -44.5
   ]
  },
  {
   "name": "ETCH_25",
   "mesh": 1,
   "translation": [
    0.0,
    0.0,
    -44.5
   ]
  },
  {
   "name": "ETCH_26",
   "mesh": 1,
   "translation": [
    6.0,
    0.0,
    -44.5
   ]
  },
  {
   "name": "ETCH_27",
   "mesh": 1,
   "translation": [
    12.0,
    0.0,
    -44.5
   ]
  },
  {
   "name": "ETCH_28",
   "mesh": 1,
   "translation": [
    18.0,
    0.0,
    -44.5
   ]
  },
  {
   "name": "ETCH_29",
   "mesh": 1,
   "translation": [
    -18.0,
    0.0,
    -38.5
   ]
  },
  {
   "name": "ETCH_30",
   "mesh": 1,
   "translation": [
    -12.0,
    0.0,
    -38.5
   ]
  },
  {
   "name": "ETCH_31",
   "mesh": 1,
   "translation": [
    -6.0,
    0.0,
    -38.5
   ]
  },
  {
   "name": "ETCH_32",
   "mesh": 1,
   "translation": [
    0.0,
    0.0,
    -38.5
   ]
  },
  {
   "name": "ETCH_33",
   "mesh": 1,
   "translation": [
    6.0,
    0.0,
    -38.5
   ]
  },
  {
   "name": "ETCH_34",
   "mesh": 1,
   "translation": [
    12.0,
    0.0,
    -38.5
   ]
  },
  {
   "name": "ETCH_35",
   "mesh": 1,
   "translation": [
    18.0,
    0.0,
    -38.5
   ]
  },
  {
   "name": "ETCH_36",
   "mesh": 1,
   "translation": [
    -18.0,
    0.0,
    -32.5
   ]
  },
  {
   "name": "ETCH_37",
   "mesh": 1,
   "translation": [
    -12.0,
    0.0,
    -32.5
   ]
  },
  {
   "name": "ETCH_38",
   "mesh": 1,
   "translation": [
    -6.0,
    0.0,
    -32.5
   ]
  },
  {
   "name": "ETCH_39",
   "mesh": 1,
   "translation": [
    0.0,
    0.0,
    -32.5
   ]
  },
  {
   "name": "ETCH_40",
   "mesh": 1,
   "translation": [
    6.0,
    0.0,
    -32.5
   ]
  },
  {
   "name": "ETCH_41",
   "mesh": 1,
   "translation": [
    12.0,
    0.0,
    -32.5
   ]
  },
  {
   "name": "ETCH_42",
   "mesh": 1,
   "translation": [
    18.0,
    0.0,
    -32.5
   ]
  },
  {
   "name": "CVD_01",
   "mesh": 2,
   "translation": [
    74.0,
    0.0,
    -65.5
   ]
  },
  {
   "name": "CVD_02",
   "mesh": 2,
   "translation": [
    80.0,
    0.0,
    -65.5
   ]
  },
  {
   "name": "CVD_03",
   "mesh": 2,
   "translation": [
    86.0,
    0.0,
    -65.5
   ]
  },
  {
   "name": "CVD_04",
   "mesh": 2,
   "translation": [
    92.0,
    0.0,
    -65.5
   ]
  },
  {
   "name": "CVD_05",
   "mesh": 2,
   "translation": [
    98.0,
    0.0,
    -65.5
   ]
  },
  {
   "name": "CVD_06",
   "mesh": 2,
   "translation": [
    104.0,
    0.0,
    -65.5
   ]
  },
  {
   "name": "CVD_07",
   "mesh": 2,
   "translation": [
    110.0,
    0.0,
    -65.5
   ]
  },
  {
   "name": "CVD_08",
   "mesh": 2,
   "translation": [
    116.0,
    0.0,
    -65.5
   ]
  },
  {
   "name": "CVD_09",
   "mesh": 2,
   "translation": [
    74.0,
    0.0,
    -59.5
   ]
  },
  {
   "name": "CVD_10",
   "mesh": 2,
   "translation": [
    80.0,
    0.0,
    -59.5
   ]
  },
  {
   "name": "CVD_11",
   "mesh": 2,
   "translation": [
    86.0,
    0.0,
    -59.5
   ]
  },
  {
   "name": "CVD_12",
   "mesh": 2,
   "translation": [
    92.0,
    0.0,
    -59.5
   ]
  },
  {
   "name": "CVD_13",
   "mesh": 2,
   "translation": [
    98.0,
    0.0,
    -59.5
   ]
  },
  {
   "name": "CVD_14",
   "mesh": 2,
   "translation": [
    104.0,
    0.0,
    -59.5
   ]
  },
  {
   "name": "CVD_15",
   "mesh": 2,
   "translation": [
    110.0,
    0.0,
    -59.5
   ]
  },
  {
   "name": "CVD_16",
   "mesh": 2,
   "translation": [
    116.0,
    0.0,
    -59.5
   ]
  },
  {
   "name": "CVD_17",
   "mesh": 2,
   "translation": [
    74.0,
    0.0,
    -53.5
   ]
  },
  {
   "name": "CVD_18",
   "mesh": 2,
   "translation": [
    80.0,
    0.0,
    -53.5
   ]
  },
  {
   "name": "CVD_19",
   "mesh": 2,
   "translation": [
    86.0,
    0.0,
    -53.5
   ]
  },
  {
   "name": "CVD_20",
   "mesh": 2,
   "translation": [
    92.0,
    0.0,
    -53.5
   ]
  },
  {
   "name": "CVD_21",
   "mesh": 2,
   "translation": [
    98.0,
    0.0,
    -53.5
   ]
  },
  {
   "name": "CVD_22",
   "mesh": 2,
   "translation": [
    104.0,
    0.0,
    -53.5
   ]
  },
  {
   "name": "CVD_23",
   "mesh": 2,
   "translation": [
    110.0,
    0.0,
    -53.5
   ]
  },
  {
   "name": "CVD_24",
   "mesh": 2,
   "translation": [
    116.0,
    0.0,
    -53.5
   ]
  },
  {
   "name": "CVD_25",
   "mesh": 2,
   "translation": [
    74.0,
    0.0,
    -47.5
   ]
  },
  {
   "name": "CVD_26",
   "mesh": 2,
   "translation": [
    80.0,
    0.0,
    -47.5
   ]
  },
  {
   "name": "CVD_27",
   "mesh": 2,
   "translation": [
    86.0,
    0.0,
    -47.5
   ]
  },
  {
   "name": "CVD_28",
   "mesh": 2,
   "translation": [
    92.0,
    0.0,
    -47.5
   ]
  },
  {
   "name": "CVD_29",
   "mesh": 2,
   "translation": [
    98.0,
    0.0,
    -47.5
   ]
  },
  {
   "name": "CVD_30",
   "mesh": 2,
   "translation": [
    104.0,
    0.0,
    -47.5
   ]
  },
  {
   "name": "CVD_31",
   "mesh": 2,
   "translation": [
    110.0,
    0.0,
    -47.5
   ]
  },
  {
   "name": "CVD_32",
   "mesh": 2,
   "translation": [
    116.0,
    0.0,
    -47.5
   ]
  },
  {
   "name": "CVD_33",
   "mesh": 2,
   "translation": [
    74.0,
    0.0,
    -41.5
   ]
  },
  {
   "name": "CVD_34",
   "mesh": 2,
   "translation": [
    80.0,
    0.0,
    -41.5
   ]
  },
  {
   "name": "CVD_35",
   "mesh": 2,
   "translation": [
    86.0,
    0.0,
    -41.5
   ]
  },
  {
   "name": "CVD_36",
   "mesh": 2,
   "translation": [
    92.0,
    0.0,
    -41.5
   ]
  },
  {
   "name": "CVD_37",
   "mesh": 2,
   "translation": [
    98.0,
    0.0,
    -41.5
   ]
  },
  {
   "name": "CVD_38",
   "mesh": 2,
   "translation": [
    104.0,
    0.0,
    -41.5
   ]
  },
  {
   "name": "CVD_39",
   "mesh": 2,
   "translation": [
    110.0,
    0.0,
    -41.5
   ]
  },
  {
   "name": "CVD_40",
   "mesh": 2,
   "translation": [
    116.0,
    0.0,
    -41.5
   ]
  },
  {
   "name": "CVD_41",
   "mesh": 2,
   "translation": [
    74.0,
    0.0,
    -35.5
   ]
  },
  {
   "name": "CVD_42",
   "mesh": 2,
   "translation": [
    80.0,
    0.0,
    -35.5
   ]
  },
  {
   "name": "CVD_43",
   "mesh": 2,
   "translation": [
    86.0,
    0.0,
    -35.5
   ]
  },
  {
   "name": "CVD_44",
   "mesh": 2,
   "translation": [
    92.0,
    0.0,
    -35.5
   ]
  },
  {
   "name": "CVD_45",
   "mesh": 2,
   "translation": [
    98.0,
    0.0,
    -35.5
   ]
  },
  {
   "name": "CVD_46",
   "mesh": 2,
   "translation": [
    104.0,
    0.0,
    -35.5
   ]
  },
  {
   "name": "CVD_47",
   "mesh": 2,
   "translation": [
    110.0,
    0.0,
    -35.5
   ]
  },
  {
   "name": "CVD_48",
   "mesh": 2,
   "translation": [
    116.0,
    0.0,
    -35.5
   ]
  },
  {
   "name": "CVD_49",
   "mesh": 2,
   "translation": [
    74.0,
    0.0,
    -29.5
   ]
  },
  {
   "name": "CVD_50",
   "mesh": 2,
   "translation": [
    80.0,
    0.0,
    -29.5
   ]
  },
  {
   "name": "CVD_51",
   "mesh": 2,
   "translation": [
    86.0,
    0.0,
    -29.5
   ]
  },
  {
   "name": "CVD_52",
   "mesh": 2,
   "translation": [
    92.0,
    0.0,
    -29.5
   ]
  },
  {
   "name": "CVD_53",
   "mesh": 2,
   "translation": [
    98.0,
    0.0,
    -29.5
   ]
  },
  {
   "name": "CVD_54",
   "mesh": 2,
   "translation": [
    104.0,
    0.0,
    -29.5
   ]
  },
  {
   "name": "CMP_01",
   "mesh": 3,
   "translation": [
    -110.0,
    0.0,
    35.5
   ]
  },
  {
   "name": "CMP_02",
   "mesh": 3,
   "translation": [
    -104.0,
    0.0,
    35.5
   ]
  },
  {
   "name": "CMP_03",
   "mesh": 3,
   "translation": [
    -98.0,
    0.0,
    35.5
   ]
  },
  {
   "name": "CMP_04",
   "mesh": 3,
   "translation": [
    -92.0,
    0.0,
    35.5
   ]
  },
  {
   "name": "CMP_05",
   "mesh": 3,
   "translation": [
    -86.0,
    0.0,
    35.5
   ]
  },
  {
   "name": "CMP_06",
   "mesh": 3,
   "translation": [
    -80.0,
    0.0,
    35.5
   ]
  },
  {
   "name": "CMP_07",
   "mesh": 3,
   "translation": [
    -110.0,
    0.0,
    41.5
   ]
  },
  {
   "name": "CMP_08",
   "mesh": 3,
   "translation": [
    -104.0,
    0.0,
    41.5
   ]
  },
  {
   "name": "CMP_09",
   "mesh": 3,
   "translation": [
    -98.0,
    0.0,
    41.5
   ]
  },
  {
   "name": "CMP_10",
   "mesh": 3,
   "translation": [
    -92.0,
    0.0,
    41.5
   ]
  },
  {
   "name": "CMP_11",
   "mesh": 3,
   "translation": [
    -86.0,
    0.0,
    41.5
   ]
  },
  {
   "name": "CMP_12",
   "mesh": 3,
   "translation": [
    -80.0,
    0.0,
    41.5
   ]
  },
  {
   "name": "CMP_13",
   "mesh": 3,
   "translation": [
    -110.0,
    0.0,
    47.5
   ]
  },
  {
   "name": "CMP_14",
   "mesh": 3,
   "translation": [
    -104.0,
    0.0,
    47.5
   ]
  },
  {
   "name": "CMP_15",
   "mesh": 3,
   "translation": [
    -98.0,
    0.0,
    47.5
   ]
  },
  {
   "name": "CMP_16",
   "mesh": 3,
   "translation": [
    -92.0,
    0.0,
    47.5
   ]
  },
  {
   "name": "CMP_17",
   "mesh": 3,
   "translation": [
    -86.0,
    0.0,
    47.5
   ]
  },
  {
   "name": "CMP_18",
   "mesh": 3,
   "translation": [
    -80.0,
    0.0,
    47.5
   ]
  },
  {
   "name": "CMP_19",
   "mesh": 3,
   "translation": [
    -110.0,
    0.0,
    53.5
   ]
  },
  {
   "name": "CMP_20",
   "mesh": 3,
   "translation": [
    -104.0,
    0.0,
    53.5
   ]
  },
  {
   "name": "CMP_21",
   "mesh": 3,
   "translation": [
    -98.0,
    0.0,
    53.5
   ]
  },
  {
   "name": "CMP_22",
   "mesh": 3,
   "translation": [
    -92.0,
    0.0,
    53.5
   ]
  },
  {
   "name": "CMP_23",
   "mesh": 3,
   "translation": [
    -86.0,
    0.0,
    53.5
   ]
  },
  {
   "name": "CMP_24",
   "mesh": 3,
   "translation": [
    -80.0,
    0.0,
    53.5
   ]
  },
  {
   "name": "CMP_25",
   "mesh": 3,
   "translation": [
    -110.0,
    0.0,
    59.5
   ]
  },
  {
   "name": "CMP_26",
   "mesh": 3,
   "translation": [
    -104.0,
    0.0,
    59.5
   ]
  },
  {
   "name": "IMP_01",
   "mesh": 4,
   "translation": [
    -13.0,
    0.0,
    34.5
   ]
  },
  {
   "name": "IMP_02",
   "mesh": 4,
   "translation": [
    -6.5,
    0.0,
    34.5
   ]
  },
  {
   "name": "IMP_03",
   "mesh": 4,
   "translation": [
    0.0,
    0.0,
    34.5
   ]
  },
  {
   "name": "IMP_04",
   "mesh": 4,
   "translation": [
    6.5,
    0.0,
    34.5
   ]
  },
  {
   "name": "IMP_05",
   "mesh": 4,
   "translation": [
    13.0,
    0.0,
    34.5
   ]
  },
  {
   "name": "IMP_06",
   "mesh": 4,
   "translation": [
    -13.0,
    0.0,
    41.0
   ]
  },
  {
   "name": "IMP_07",
   "mesh": 4,
   "translation": [
    -6.5,
    0.0,
    41.0
   ]
  },
  {
   "name": "IMP_08",
   "mesh": 4,
   "translation": [
    0.0,
    0.0,
    41.0
   ]
  },
  {
   "name": "IMP_09",
   "mesh": 4,
   "translation": [
    6.5,
    0.0,
    41.0
   ]
  },
  {
   "name": "IMP_10",
   "mesh": 4,
   "translation": [
    13.0,
    0.0,
    41.0
   ]
  },
  {
   "name": "IMP_11",
   "mesh": 4,
   "translation": [
    -13.0,
    0.0,
    47.5
   ]
  },
  {
   "name": "IMP_12",
   "mesh": 4,
   "translation": [
    -6.5,
    0.0,
    47.5
   ]
  },
  {
   "name": "IMP_13",
   "mesh": 4,
   "translation": [
    0.0,
    0.0,
    47.5
   ]
  },
  {
   "name": "IMP_14",
   "mesh": 4,
   "translation": [
    6.5,
    0.0,
    47.5
   ]
  },
  {
   "name": "IMP_15",
   "mesh": 4,
   "translation": [
    13.0,
    0.0,
    47.5
   ]
  },
  {
   "name": "IMP_16",
   "mesh": 4,
   "translation": [
    -13.0,
    0.0,
    54.0
   ]
  },
  {
   "name": "IMP_17",
   "mesh": 4,
   "translation": [
    -6.5,
    0.0,
    54.0
   ]
  },
  {
   "name": "IMP_18",
   "mesh": 4,
   "translation": [
    0.0,
    0.0,
    54.0
   ]
  },
  {
   "name": "IMP_19",
   "mesh": 4,
   "translation": [
    6.5,
    0.0,
    54.0
   ]
  },
  {
   "name": "IMP_20",
   "mesh": 4,
   "translation": [
    13.0,
    0.0,
    54.0
   ]
  },
  {
   "name": "IMP_21",
   "mesh": 4,
   "translation": [
    -13.0,
    0.0,
    60.5
   ]
  },
  {
   "name": "IMP_22",
   "mesh": 4,
   "translation": [
    -6.5,
    0.0,
    60.5
   ]
  },
  {
   "name": "MET_01",
   "mesh": 5,
   "translation": [
    82.5,
    0.0,
    35.0
   ]
  },
  {
   "name": "MET_02",
   "mesh": 5,
   "translation": [
    87.5,
    0.0,
    35.0
   ]
  },
  {
   "name": "MET_03",
   "mesh": 5,
   "translation": [
    92.5,
    0.0,
    35.0
   ]
  },
  {
   "name": "MET_04",
   "mesh": 5,
   "translation": [
    97.5,
    0.0,
    35.0
   ]
  },
  {
   "name": "MET_05",
   "mesh": 5,
   "translation": [
    102.5,
    0.0,
    35.0
   ]
  },
  {
   "name": "MET_06",
   "mesh": 5,
   "translation": [
    107.5,
    0.0,
    35.0
   ]
  },
  {
   "name": "MET_07",
   "mesh": 5,
   "translation": [
    82.5,
    0.0,
    40.0
   ]
  },
  {
   "name": "MET_08",
   "mesh": 5,
   "translation": [
    87.5,
    0.0,
    40.0
   ]
  },
  {
   "name": "MET_09",
   "mesh": 5,
   "translation": [
    92.5,
    0.0,
    40.0
   ]
  },
  {
   "name": "MET_10",
   "mesh": 5,
   "translation": [
    97.5,
    0.0,
    40.0
   ]
  },
  {
   "name": "MET_11",
   "mesh": 5,
   "translation": [
    102.5,
    0.0,
    40.0
   ]
  },
  {
   "name": "MET_12",
   "mesh": 5,
   "translation": [
    107.5,
    0.0,
    40.0
   ]
  },
  {
   "name": "MET_13",
   "mesh": 5,
   "translation": [
    82.5,
    0.0,
    45.0
   ]
  },
  {
   "name": "MET_14",
   "mesh": 5,
   "translation": [
    87.5,
    0.0,
    45.0
   ]
  },
  {
   "name": "MET_15",
   "mesh": 5,
   "translation": [
    92.5,
    0.0,
    45.0
   ]
  },
  {
   "name": "MET_16",
   "mesh": 5,
   "translation": [
    97.5,
    0.0,
    45.0
   ]
  },
  {
   "name": "MET_17",
   "mesh": 5,
   "translation": [
    102.5,
    0.0,
    45.0
   ]
  },
  {
   "name": "MET_18",
   "mesh": 5,
   "translation": [
    107.5,
    0.0,
    45.0
   ]
  },
  {
   "name": "MET_19",
   "mesh": 5,
   "translation": [
    82.5,
    0.0,
    50.0
   ]
  },
  {
   "name": "MET_20",
   "mesh": 5,
   "translation": [
    87.5,
    0.0,
    50.0
   ]
  },
  {
   "name": "MET_21",
   "mesh": 5,
   "translation": [
    92.5,
    0.0,
    50.0
   ]
  },
  {
   "name": "MET_22",
   "mesh": 5,
   "translation": [
    97.5,
    0.0,
    50.0
   ]
  },
  {
   "name": "MET_23",
   "mesh": 5,
   "translation": [
    102.5,
    0.0,
    50.0
   ]
  },
  {
   "name": "MET_24",
   "mesh": 5,
   "translation": [
    107.5,
    0.0,
    50.0
   ]
  },
  {
   "name": "MET_25",
   "mesh": 5,
   "translation": [
    82.5,
    0.0,
    55.0
   ]
  },
  {
   "name": "MET_26",
   "mesh": 5,
   "translation": [
    87.5,
    0.0,
    55.0
   ]
  },
  {
   "name": "MET_27",
   "mesh": 5,
   "translation": [
    92.5,
    0.0,
    55.0
   ]
  },
  {
   "name": "MET_28",
   "mesh": 5,
   "translation": [
    97.5,
    0.0,
    55.0
   ]
  },
  {
   "name": "MET_29",
   "mesh": 5,
   "translation": [
    102.5,
    0.0,
    55.0
   ]
  },
  {
   "name": "MET_30",
   "mesh": 5,
   "translation": [
    107.5,
    0.0,
    55.0
   ]
  },
  {
   "name": "MET_31",
   "mesh": 5,
   "translation": [
    82.5,
    0.0,
    60.0
   ]
  },
  {
   "name": "MET_32",
   "mesh": 5,
   "translation": [
    87.5,
    0.0,
    60.0
   ]
  },
  {
   "name": "MET_33",
   "mesh": 5,
   "translation": [
    92.5,
    0.0,
    60.0
   ]
  },
  {
   "name": "MET_34",
   "mesh": 5,
   "translation": [
    97.5,
    0.0,
    60.0
   ]
  },
  {
   "name": "FLOOR",
   "mesh": 6
  },
  {
   "name": "AMHS_RAIL",
   "mesh": 7
  },
  {
   "name": "AMHS_VEH",
   "mesh": 8
  },
  {
   "name": "UTIL_PIPE",
   "mesh": 9
  },
  {
   "name": "STR",
   "mesh": 10
  }
 ],
 "meshes": [
  {
   "name": "m_LITHO",
   "primitives": [
    {
     "attributes": {
      "POSITION": 0,
      "NORMAL": 1
     },
     "indices": 2,
     "material": 0
    }
   ]
  },
  {
   "name": "m_ETCH",
   "primitives": [
    {
     "attributes": {
      "POSITION": 3,
      "NORMAL": 4
     },
     "indices": 5,
     "material": 1
    }
   ]
  },
  {
   "name": "m_DEP",
   "primitives": [
    {
     "attributes": {
      "POSITION": 6,
      "NORMAL": 7
     },
     "indices": 8,
     "material": 2
    }
   ]
  },
  {
   "name": "m_CMP",
   "primitives": [
    {
     "attributes": {
      "POSITION": 9,
      "NORMAL": 10
     },
     "indices": 11,
     "material": 3
    }
   ]
  },
  {
   "name": "m_IMPL",
   "primitives": [
    {
     "attributes": {
      "POSITION": 12,
      "NORMAL": 13
     },
     "indices": 14,
     "material": 4
    }
   ]
  },
  {
   "name": "m_METRO",
   "primitives": [
    {
     "attributes": {
      "POSITION": 15,
      "NORMAL": 16
     },
     "indices": 17,
     "material": 5
    }
   ]
  },
  {
   "name": "FLOOR",
   "primitives": [
    {
     "attributes": {
      "POSITION": 18,
      "NORMAL": 19
     },
     "indices": 20,
     "material": 6
    }
   ]
  },
  {
   "name": "AMHS_RAIL",
   "primitives": [
    {
     "attributes": {
      "POSITION": 21,
      "NORMAL": 22
     },
     "indices": 23,
     "material": 7
    }
   ]
  },
  {
   "name": "AMHS_VEH",
   "primitives": [
    {
     "attributes": {
      "POSITION": 24,
      "NORMAL": 25
     },
     "indices": 26,
     "material": 7
    }
   ]
  },
  {
   "name": "UTIL_PIPE",
   "primitives": [
    {
     "attributes": {
      "POSITION": 27,
      "NORMAL": 28
     },
     "indices": 29,
     "material": 8
    }
   ]
  },
  {
   "name": "STR",
   "primitives": [
    {
     "attributes": {
      "POSITION": 30,
      "NORMAL": 31
     },
     "indices": 32,
     "material": 9
    }
   ]
  }
 ],
 "materials": [
  {
   "name": "LITHO",
   "pbrMetallicRoughness": {
    "baseColorFactor": [
     1.0,
     0.3607843137254902,
     0.5411764705882353,
     1.0
    ],
    "metallicFactor": 0.25,
    "roughnessFactor": 0.7
   }
  },
  {
   "name": "ETCH",
   "pbrMetallicRoughness": {
    "baseColorFactor": [
     0.3058823529411765,
     0.6313725490196078,
     1.0,
     1.0
    ],
    "metallicFactor": 0.25,
    "roughnessFactor": 0.7
   }
  },
  {
   "name": "DEP",
   "pbrMetallicRoughness": {
    "baseColorFactor": [
     0.3411764705882353,
     0.8392156862745098,
     0.6509803921568628,
     1.0
    ],
    "metallicFactor": 0.25,
    "roughnessFactor": 0.7
   }
  },
  {
   "name": "CMP",
   "pbrMetallicRoughness": {
    "baseColorFactor": [
     0.9490196078431372,
     0.7568627450980392,
     0.3058823529411765,
     1.0
    ],
    "metallicFactor": 0.25,
    "roughnessFactor": 0.7
   }
  },
  {
   "name": "IMPL",
   "pbrMetallicRoughness": {
    "baseColorFactor": [
     0.7254901960784313,
     0.5490196078431373,
     1.0,
     1.0
    ],
    "metallicFactor": 0.25,
    "roughnessFactor": 0.7
   }
  },
  {
   "name": "METRO",
   "pbrMetallicRoughness": {
    "baseColorFactor": [
     1.0,
     0.6235294117647059,
     0.3607843137254902,
     1.0
    ],
    "metallicFactor": 0.25,
    "roughnessFactor": 0.7
   }
  },
  {
   "name": "FLOOR",
   "pbrMetallicRoughness": {
    "baseColorFactor": [
     0.12156862745098039,
     0.16470588235294117,
     0.2196078431372549,
     1.0
    ],
    "metallicFactor": 0.25,
    "roughnessFactor": 0.7
   }
  },
  {
   "name": "AMHS",
   "pbrMetallicRoughness": {
    "baseColorFactor": [
     0.45098039215686275,
     0.5215686274509804,
     0.611764705882353,
     1.0
    ],
    "metallicFactor": 0.25,
    "roughnessFactor": 0.7
   }
  },
  {
   "name": "UTIL",
   "pbrMetallicRoughness": {
    "baseColorFactor": [
     0.30196078431372547,
     0.3333333333333333,
     0.3764705882352941,
     1.0
    ],
    "metallicFactor": 0.25,
    "roughnessFactor": 0.7
   }
  },
  {
   "name": "STR",
   "pbrMetallicRoughness": {
    "baseColorFactor": [
     0.2196078431372549,
     0.23921568627450981,
     0.2784313725490196,
     1.0
    ],
    "metallicFactor": 0.25,
    "roughnessFactor": 0.7
   }
  }
 ],
 "buffers": [
  {
   "byteLength": 29988,
   "uri": "data:application/octet-stream;base64,"
  }
 ],
 "bufferViews": [
  {
   "buffer": 0,
   "byteOffset": 0,
   "byteLength": 864,
   "target": 34962
  },
  {
   "buffer": 0,
   "byteOffset": 864,
   "byteLength": 864,
   "target": 34962
  },
  {
   "buffer": 0,
   "byteOffset": 1728,
   "byteLength": 36,
   "target": 34963
  },
  {
   "buffer": 0,
   "byteOffset": 1764,
   "byteLength": 864,
   "target": 34962
  },
  {
   "buffer": 0,
   "byteOffset": 2628,
   "byteLength": 864,
   "target": 34962
  },
  {
   "buffer": 0,
   "byteOffset": 3492,
   "byteLength": 36,
   "target": 34963
  },
  {
   "buffer": 0,
   "byteOffset": 3528,
   "byteLength": 864,
   "target": 34962
  },
  {
   "buffer": 0,
   "byteOffset": 4392,
   "byteLength": 864,
   "target": 34962
  },
  {
   "buffer": 0,
   "byteOffset": 5256,
   "byteLength": 36,
   "target": 34963
  },
  {
   "buffer": 0,
   "byteOffset": 5292,
   "byteLength": 864,
   "target": 34962
  },
  {
   "buffer": 0,
   "byteOffset": 6156,
   "byteLength": 864,
   "target": 34962
  },
  {
   "buffer": 0,
   "byteOffset": 7020,
   "byteLength": 36,
   "target": 34963
  },
  {
   "buffer": 0,
   "byteOffset": 7056,
   "byteLength": 864,
   "target": 34962
  },
  {
   "buffer": 0,
   "byteOffset": 7920,
   "byteLength": 864,
   "target": 34962
  },
  {
   "buffer": 0,
   "byteOffset": 8784,
   "byteLength": 36,
   "target": 34963
  },
  {
   "buffer": 0,
   "byteOffset": 8820,
   "byteLength": 864,
   "target": 34962
  },
  {
   "buffer": 0,
   "byteOffset": 9684,
   "byteLength": 864,
   "target": 34962
  },
  {
   "buffer": 0,
   "byteOffset": 10548,
   "byteLength": 36,
   "target": 34963
  },
  {
   "buffer": 0,
   "byteOffset": 10584,
   "byteLength": 288,
   "target": 34962
  },
  {
   "buffer": 0,
   "byteOffset": 10872,
   "byteLength": 288,
   "target": 34962
  },
  {
   "buffer": 0,
   "byteOffset": 11160,
   "byteLength": 12,
   "target": 34963
  },
  {
   "buffer": 0,
   "byteOffset": 11172,
   "byteLength": 1152,
   "target": 34962
  },
  {
   "buffer": 0,
   "byteOffset": 12324,
   "byteLength": 1152,
   "target": 34962
  },
  {
   "buffer": 0,
   "byteOffset": 13476,
   "byteLength": 48,
   "target": 34963
  },
  {
   "buffer": 0,
   "byteOffset": 13524,
   "byteLength": 3456,
   "target": 34962
  },
  {
   "buffer": 0,
   "byteOffset": 16980,
   "byteLength": 3456,
   "target": 34962
  },
  {
   "buffer": 0,
   "byteOffset": 20436,
   "byteLength": 144,
   "target": 34963
  },
  {
   "buffer": 0,
   "byteOffset": 20580,
   "byteLength": 2880,
   "target": 34962
  },
  {
   "buffer": 0,
   "byteOffset": 23460,
   "byteLength": 2880,
   "target": 34962
  },
  {
   "buffer": 0,
   "byteOffset": 26340,
   "byteLength": 120,
   "target": 34963
  },
  {
   "buffer": 0,
   "byteOffset": 26460,
   "byteLength": 1728,
   "target": 34962
  },
  {
   "buffer": 0,
   "byteOffset": 28188,
   "byteLength": 1728,
   "target": 34962
  },
  {
   "buffer": 0,
   "byteOffset": 29916,
   "byteLength": 72,
   "target": 34963
  }
 ],
 "accessors": [
  {
   "bufferView": 0,
   "componentType": 5126,
   "count": 72,
   "type": "VEC3",
   "min": [
    -4.8,
    0.0,
    -4.8
   ],
   "max": [
    4.8,
    10.600000000000001,
    4.8
   ]
  },
  {
   "bufferView": 1,
   "componentType": 5126,
   "count": 72,
   "type": "VEC3"
  },
  {
   "bufferView": 2,
   "componentType": 5123,
   "count": 18,
   "type": "SCALAR"
  },
  {
   "bufferView": 3,
   "componentType": 5126,
   "count": 72,
   "type": "VEC3",
   "min": [
    -2.3,
    0.0,
    -2.4
   ],
   "max": [
    2.3,
    4.7,
    2.4
   ]
  },
  {
   "bufferView": 4,
   "componentType": 5126,
   "count": 72,
   "type": "VEC3"
  },
  {
   "bufferView": 5,
   "componentType": 5123,
   "count": 18,
   "type": "SCALAR"
  },
  {
   "bufferView": 6,
   "componentType": 5126,
   "count": 72,
   "type": "VEC3",
   "min": [
    -2.3,
    0.0,
    -2.4
   ],
   "max": [
    2.3,
    4.7,
    2.4
   ]
  },
  {
   "bufferView": 7,
   "componentType": 5126,
   "count": 72,
   "type": "VEC3"
  },
  {
   "bufferView": 8,
   "componentType": 5123,
   "count": 18,
   "type": "SCALAR"
  },
  {
   "bufferView": 9,
   "componentType": 5126,
   "count": 72,
   "type": "VEC3",
   "min": [
    -2.3,
    0.0,
    -2.4
   ],
   "max": [
    2.3,
    4.7,
    2.4
   ]
  },
  {
   "bufferView": 10,
   "componentType": 5126,
   "count": 72,
   "type": "VEC3"
  },
  {
   "bufferView": 11,
   "componentType": 5123,
   "count": 18,
   "type": "SCALAR"
  },
  {
   "bufferView": 12,
   "componentType": 5126,
   "count": 72,
   "type": "VEC3",
   "min": [
    -2.3,
    0.0,
    -2.4
   ],
   "max": [
    2.3,
    4.7,
    2.4
   ]
  },
  {
   "bufferView": 13,
   "componentType": 5126,
   "count": 72,
   "type": "VEC3"
  },
  {
   "bufferView": 14,
   "componentType": 5123,
   "count": 18,
   "type": "SCALAR"
  },
  {
   "bufferView": 15,
   "componentType": 5126,
   "count": 72,
   "type": "VEC3",
   "min": [
    -1.7,
    0.0,
    -1.7
   ],
   "max": [
    1.7,
    3.5,
    1.7
   ]
  },
  {
   "bufferView": 16,
   "componentType": 5126,
   "count": 72,
   "type": "VEC3"
  },
  {
   "bufferView": 17,
   "componentType": 5123,
   "count": 18,
   "type": "SCALAR"
  },
  {
   "bufferView": 18,
   "componentType": 5126,
   "count": 24,
   "type": "VEC3",
   "min": [
    -156.5,
    -0.4,
    -109.0
   ],
   "max": [
    156.5,
    0.0,
    109.0
   ]
  },
  {
   "bufferView": 19,
   "componentType": 5126,
   "count": 24,
   "type": "VEC3"
  },
  {
   "bufferView": 20,
   "componentType": 5123,
   "count": 6,
   "type": "SCALAR"
  },
  {
   "bufferView": 21,
   "componentType": 5126,
   "count": 96,
   "type": "VEC3",
   "min": [
    -148.8,
    14.7,
    -101.3
   ],
   "max": [
    148.8,
    15.3,
    101.3
   ]
  },
  {
   "bufferView": 22,
   "componentType": 5126,
   "count": 96,
   "type": "VEC3"
  },
  {
   "bufferView": 23,
   "componentType": 5123,
   "count": 24,
   "type": "SCALAR"
  },
  {
   "bufferView": 24,
   "componentType": 5126,
   "count": 288,
   "type": "VEC3",
   "min": [
    -149.6,
    15.3,
    -102.1
   ],
   "max": [
    149.6,
    16.3,
    102.1
   ]
  },
  {
   "bufferView": 25,
   "componentType": 5126,
   "count": 288,
   "type": "VEC3"
  },
  {
   "bufferView": 26,
   "componentType": 5123,
   "count": 72,
   "type": "SCALAR"
  },
  {
   "bufferView": 27,
   "componentType": 5126,
   "count": 240,
   "type": "VEC3",
   "min": [
    -146.5,
    -4.4,
    -99.0
   ],
   "max": [
    146.5,
    -3.6,
    99.0
   ]
  },
  {
   "bufferView": 28,
   "componentType": 5126,
   "count": 240,
   "type": "VEC3"
  },
  {
   "bufferView": 29,
   "componentType": 5123,
   "count": 60,
   "type": "SCALAR"
  },
  {
   "bufferView": 30,
   "componentType": 5126,
   "count": 144,
   "type": "VEC3",
   "min": [
    -147.1,
    0.0,
    -99.6
   ],
   "max": [
    147.1,
    16.0,
    99.6
   ]
  },
  {
   "bufferView": 31,
   "componentType": 5126,
   "count": 144,
   "type": "VEC3"
  },
  {
   "bufferView": 32,
   "componentType": 5123,
   "count": 36,
   "type": "SCALAR"
  }
 ]
}